<svg xmlns="http://www.w3.org/2000/svg" viewBox="0 0 400 400" width="400" height="400">
  <g transform="translate(200, 200) rotate(-15)">
    <!-- main cucumber -->
    <path d="M -110 0 Q -110 -25 -85 -28 L 85 -28 Q 110 -25 110 0 Q 110 25 85 28 L -85 28 Q -110 25 -110 0 Z"
          fill="#65a30d" stroke="#3f6212" stroke-width="2"/>
    <!-- Lighter belly -->
    <path d="M -105 5 Q -85 25 0 28 Q 85 25 105 5"
          fill="#a3e635" opacity="0.5"/>
    <!-- texture bumps -->
    <circle cx="-70" cy="-8" r="2" fill="#3f6212" opacity="0.6"/>
    <circle cx="-40" cy="-12" r="2" fill="#3f6212" opacity="0.6"/>
    <circle cx="-10" cy="-8" r="2" fill="#3f6212" opacity="0.6"/>
    <circle cx="20" cy="-13" r="2" fill="#3f6212" opacity="0.6"/>
    <circle cx="50" cy="-9" r="2" fill="#3f6212" opacity="0.6"/>
    <circle cx="80" cy="-11" r="2" fill="#3f6212" opacity="0.6"/>
    <circle cx="-60" cy="10" r="1.5" fill="#3f6212" opacity="0.6"/>
    <circle cx="-20" cy="14" r="1.5" fill="#3f6212" opacity="0.6"/>
    <circle cx="30" cy="12" r="1.5" fill="#3f6212" opacity="0.6"/>
    <circle cx="70" cy="14" r="1.5" fill="#3f6212" opacity="0.6"/>
    <!-- vertical line down middle -->
    <line x1="-100" y1="0" x2="100" y2="0" stroke="#84cc16" stroke-width="1" opacity="0.4"/>
    <!-- stem nub -->
    <ellipse cx="-110" cy="0" rx="8" ry="6" fill="#3f6212"/>
  </g>
</svg>